<svg width="61" height="61" viewBox="0 0 61 61" fill="none" xmlns="http://www.w3.org/2000/svg">
<g opacity="0.4" filter="url(#filter0_f_2040_10218)">
<circle cx="30.4167" cy="30.4167" r="17.4167" fill="#7B57E0"/>
</g>
<path fill-rule="evenodd" clip-rule="evenodd" d="M30.5507 23.8971C28.7169 23.8971 27.2302 25.3837 27.2302 27.2176C27.2302 29.0515 28.7169 30.5381 30.5507 30.5381C32.3846 30.5381 33.8712 29.0515 33.8712 27.2176C33.8712 25.3837 32.3846 23.8971 30.5507 23.8971ZM32.9417 30.9734C34.1807 30.183 35.0025 28.7963 35.0025 27.2176C35.0025 24.759 33.0093 22.7659 30.5507 22.7659C28.0921 22.7659 26.099 24.759 26.099 27.2176C26.099 28.7963 26.9207 30.183 28.1598 30.9734C27.2651 31.3104 26.4432 31.8359 25.7541 32.5249C24.6775 33.6015 24.0001 35.0029 23.8174 36.4987H24.9588C25.1345 35.304 25.6899 34.1889 26.5541 33.3248C27.614 32.2648 29.0517 31.6693 30.5507 31.6693C32.0261 31.6693 33.4421 32.2462 34.497 33.275C34.6847 32.9421 34.9254 32.643 35.2076 32.3891C34.5483 31.7666 33.7766 31.2879 32.9417 30.9734Z" fill="white"/>
<path d="M38.017 39.7996C37.9241 39.7996 37.8623 39.7686 37.8004 39.7068L35.9442 37.8505C35.8514 37.7577 35.8204 37.634 35.8823 37.5102C35.9132 37.3865 36.037 37.3246 36.1607 37.3246H37.0888C37.3363 37.3246 37.5838 37.2318 37.7385 37.0462C37.9241 36.8915 38.017 36.644 38.017 36.3965C38.017 36.149 37.9241 35.9015 37.7385 35.7468C37.5838 35.5612 37.3363 35.4684 37.0888 35.4684H36.1607C35.9751 35.4684 35.8514 35.3446 35.8514 35.159C35.8514 34.9734 35.9751 34.8496 36.1607 34.8496H39.5638C39.7494 34.8496 39.8732 34.9734 39.8732 35.159C39.8732 35.3446 39.7494 35.4684 39.5638 35.4684H38.3263C38.512 35.7468 38.6357 36.0562 38.6357 36.3965C38.6357 36.7987 38.481 37.2008 38.1716 37.4793C37.8932 37.7887 37.491 37.9433 37.0888 37.9433H36.9032L38.2335 39.2736C38.3573 39.3974 38.3573 39.583 38.2335 39.7068C38.1716 39.7686 38.1098 39.7996 38.017 39.7996Z" fill="white"/>
<path d="M39.564 36.7057H36.1609C35.9753 36.7057 35.8516 36.5819 35.8516 36.3963C35.8516 36.2107 35.9753 36.0869 36.1609 36.0869H39.564C39.7497 36.0869 39.8734 36.2107 39.8734 36.3963C39.8734 36.5819 39.7497 36.7057 39.564 36.7057Z" fill="white"/>
<path d="M33.0617 38.079C31.0806 38.7088 28.9451 38.6535 26.9992 37.9219C25.0534 37.1903 23.4104 35.825 22.335 34.0459C21.2595 32.2669 20.8142 30.1776 21.0708 28.1146C21.3273 26.0517 22.2708 24.1351 23.7492 22.6737C25.2277 21.2122 27.155 20.2909 29.2208 20.0582C31.2866 19.8255 33.3706 20.2949 35.1371 21.3908C36.9036 22.4867 38.2498 24.1453 38.9589 26.0995C39.668 28.0537 39.6987 30.1896 39.046 32.1634" stroke="white" stroke-width="1.33421" stroke-miterlimit="10"/>
<path d="M38.0313 41.9998C40.776 41.9998 43.001 39.7748 43.001 37.0301C43.001 34.2853 40.776 32.0603 38.0313 32.0603C35.2866 32.0603 33.0615 34.2853 33.0615 37.0301C33.0615 39.7748 35.2866 41.9998 38.0313 41.9998Z" stroke="white" stroke-width="1.33421" stroke-miterlimit="10"/>
<defs>
<filter id="filter0_f_2040_10218" x="0.333334" y="0.333334" width="60.1668" height="60.1666" filterUnits="userSpaceOnUse" color-interpolation-filters="sRGB">
<feFlood flood-opacity="0" result="BackgroundImageFix"/>
<feBlend mode="normal" in="SourceGraphic" in2="BackgroundImageFix" result="shape"/>
<feGaussianBlur stdDeviation="6.33333" result="effect1_foregroundBlur_2040_10218"/>
</filter>
</defs>
</svg>
