<svg width="257" height="101" viewBox="0 0 257 101" fill="none" xmlns="http://www.w3.org/2000/svg">
<path d="M0 76.7207V0.125H11.2766V76.7207H0Z" fill="black"/>
<path d="M50.7696 77.9973C45.5923 77.9973 40.9824 76.8626 36.9398 74.5931C32.9682 72.2527 29.8476 69.0257 27.5781 64.9122C25.3086 60.7988 24.1739 56.0115 24.1739 50.5505C24.1739 45.0186 25.2732 40.1605 27.4717 35.9761C29.7412 31.7917 32.8618 28.5293 36.8334 26.1888C40.876 23.8484 45.5568 22.6782 50.876 22.6782C56.0533 22.6782 60.5568 23.8484 64.3866 26.1888C68.2164 28.4583 71.1951 31.508 73.3228 35.3378C75.4505 39.1676 76.5143 43.3874 76.5143 47.9973C76.5143 48.7066 76.4788 49.4867 76.4079 50.3378C76.4079 51.1179 76.3724 52.0044 76.3015 52.9973H35.2377C35.5923 58.1037 37.259 62.0044 40.2377 64.6995C43.2873 67.3236 46.798 68.6356 50.7696 68.6356C53.9611 68.6356 56.6207 67.9264 58.7483 66.508C60.9469 65.0186 62.5781 63.0328 63.6419 60.5505H74.9185C73.5001 65.5151 70.6632 69.664 66.4079 72.9973C62.2235 76.3307 57.0107 77.9973 50.7696 77.9973ZM50.7696 31.9335C47.0107 31.9335 43.6774 33.0683 40.7696 35.3378C37.8618 37.5364 36.0888 40.8697 35.4505 45.3378H65.2377C65.0249 41.2243 63.571 37.9619 60.876 35.5505C58.181 33.1392 54.8122 31.9335 50.7696 31.9335Z" fill="black"/>
<path d="M143.418 100.125V23.9548H153.524L154.694 32.1463C156.396 29.664 158.737 27.4654 161.715 25.5505C164.694 23.6356 168.524 22.6782 173.205 22.6782C178.311 22.6782 182.815 23.8839 186.715 26.2952C190.616 28.7066 193.666 32.0044 195.864 36.1888C198.134 40.3732 199.269 45.125 199.269 50.4442C199.269 55.7633 198.134 60.5151 195.864 64.6995C193.666 68.8129 190.616 72.0754 186.715 74.4867C182.815 76.8271 178.276 77.9973 173.098 77.9973C168.985 77.9973 165.332 77.1817 162.141 75.5505C159.02 73.9193 156.538 71.6144 154.694 68.6356V100.125H143.418ZM171.183 68.2101C176.006 68.2101 179.978 66.5789 183.098 63.3165C186.219 59.9832 187.779 55.6569 187.779 50.3378C187.779 46.8626 187.07 43.7775 185.652 41.0824C184.233 38.3874 182.283 36.2952 179.801 34.8059C177.318 33.2456 174.446 32.4654 171.183 32.4654C166.361 32.4654 162.389 34.1321 159.269 37.4654C156.219 40.7988 154.694 45.0895 154.694 50.3378C154.694 55.6569 156.219 59.9832 159.269 63.3165C162.389 66.5789 166.361 68.2101 171.183 68.2101Z" fill="black"/>
<path d="M204.294 76.7207L223.017 50.3378L204.294 23.9548H216.315L230.464 44.1676L244.506 23.9548H256.634L237.911 50.3378L256.634 76.7207H244.506L230.464 56.508L216.315 76.7207H204.294Z" fill="black"/>
<path d="M91.1838 75.3099H80.7914L104.311 23.8947H113.61L137.129 75.3099H127.284L108.96 34.8341L91.1838 75.3099Z" fill="url(#paint0_linear_298_4027)"/>
<path d="M114.157 69.8402C114.157 72.8611 111.708 75.3099 108.687 75.3099C105.666 75.3099 103.217 72.8611 103.217 69.8402C103.217 66.8194 105.666 64.3705 108.687 64.3705C111.708 64.3705 114.157 66.8194 114.157 69.8402Z" fill="url(#paint1_linear_298_4027)"/>
<defs>
<linearGradient id="paint0_linear_298_4027" x1="108.96" y1="23.8984" x2="90.296" y2="78.552" gradientUnits="userSpaceOnUse">
<stop stop-color="#E45B3E"/>
<stop offset="1" stop-color="#6C48A4"/>
</linearGradient>
<linearGradient id="paint1_linear_298_4027" x1="108.96" y1="23.8984" x2="90.296" y2="78.552" gradientUnits="userSpaceOnUse">
<stop stop-color="#E45B3E"/>
<stop offset="1" stop-color="#6C48A4"/>
</linearGradient>
</defs>
</svg>
