<svg width="61" height="61" viewBox="0 0 61 61" fill="none" xmlns="http://www.w3.org/2000/svg">
<g opacity="0.4" filter="url(#filter0_f_2040_10244)">
<circle cx="30.4167" cy="30.4167" r="17.4167" fill="#7B57E0"/>
</g>
<g clip-path="url(#clip0_2040_10244)">
<path d="M35.2428 28.591C35.7716 28.2367 36.1508 27.708 36.3179 27.0842C36.5007 26.4022 36.408 25.6919 36.057 25.0839C35.7059 24.476 35.1371 24.0405 34.4552 23.8578C33.8313 23.6906 33.1839 23.7546 32.6127 24.0354L31.1407 21.4859C30.8274 20.9432 30.2646 20.6269 29.6397 20.6375C29.0132 20.649 28.4641 20.9864 28.1707 21.5402C27.9647 21.9292 27.7713 22.3333 27.5664 22.7612C26.7316 24.5051 25.7854 26.4817 23.7398 27.6627L21.1112 29.1803C20.2064 29.7026 19.5583 30.5495 19.2863 31.5648C19.0142 32.5801 19.1521 33.6375 19.6744 34.5423C20.4006 35.8002 21.7228 36.5042 23.0805 36.5042C23.5757 36.5042 24.0755 36.4103 24.553 36.2158L26.3905 39.3985C26.7707 40.057 27.4627 40.4254 28.1734 40.4254C28.5217 40.4254 28.8746 40.3369 29.1973 40.1506C29.6711 39.877 30.0105 39.4338 30.1528 38.9025C30.2952 38.3712 30.2229 37.8177 29.9493 37.3439L28.1412 34.2121C30.0449 33.3071 32.043 33.4606 33.8221 33.5981C34.2955 33.6347 34.7425 33.6693 35.1828 33.6854C35.8082 33.7078 36.3759 33.4015 36.699 32.8645C37.0222 32.3276 37.0281 31.6832 36.7147 31.1404L35.2428 28.5909L35.2428 28.591ZM34.1772 24.8954C34.5819 25.0038 34.9191 25.2615 35.1267 25.621C35.5274 26.315 35.3332 27.1916 34.7039 27.6575L33.1517 24.969C33.473 24.8295 33.8309 24.8026 34.1772 24.8954H34.1772ZM23.0787 35.4302C22.0927 35.4302 21.1322 34.9188 20.6048 34.0052C20.2259 33.349 20.1261 32.581 20.324 31.8428C20.5217 31.1047 20.9921 30.4895 21.6484 30.1106L23.812 28.8614L26.6657 33.7982L24.4995 35.0489C24.0516 35.3074 23.5622 35.4303 23.0787 35.4302ZM29.1153 38.6245C29.0472 38.8787 28.8856 39.0902 28.6602 39.2203C28.192 39.4906 27.5912 39.3297 27.3209 38.8615L25.5017 35.7106L27.1999 34.7301L29.0191 37.881C29.1492 38.1064 29.1833 38.3704 29.1152 38.6245H29.1153ZM35.7787 32.3106C35.6565 32.5136 35.4596 32.6211 35.2221 32.612C34.8036 32.5967 34.3671 32.5629 33.9049 32.5272C31.9635 32.3772 29.7806 32.209 27.6053 33.277L24.7331 28.3083C26.7481 26.9571 27.6943 24.982 28.5354 23.2251C28.7353 22.8073 28.9243 22.4127 29.12 22.043C29.2309 21.8336 29.4225 21.7159 29.6594 21.7116C29.6639 21.7115 29.6683 21.7115 29.6728 21.7115C29.9036 21.7115 30.0942 21.8218 30.2105 22.0231L35.7845 31.6777C35.903 31.8829 35.901 32.1077 35.7787 32.3107L35.7787 32.3106ZM34.3835 21.7646L35.4927 19.8434C35.641 19.5865 35.9694 19.4984 36.2263 19.6468C36.4833 19.7951 36.5713 20.1236 36.4229 20.3805L35.3137 22.3017C35.2143 22.474 35.0337 22.5703 34.8481 22.5703C34.7569 22.5703 34.6646 22.5471 34.58 22.4983C34.3231 22.35 34.2351 22.0215 34.3835 21.7646ZM39.3701 23.7913L37.4024 24.9273C37.3178 24.9762 37.2255 24.9994 37.1344 24.9994C36.9487 24.9994 36.7682 24.9031 36.6687 24.7308C36.5204 24.4739 36.6084 24.1454 36.8653 23.9971L38.833 22.861C39.0898 22.7126 39.4184 22.8007 39.5667 23.0576C39.715 23.3144 39.627 23.643 39.3701 23.7913ZM40.8504 27.6558C40.8504 27.9524 40.6099 28.1929 40.3133 28.1929H38.0948C37.7982 28.1929 37.5577 27.9524 37.5577 27.6558C37.5577 27.3591 37.7982 27.1187 38.0948 27.1187H40.3133C40.6099 27.1187 40.8504 27.3591 40.8504 27.6558Z" fill="white"/>
</g>
<defs>
<filter id="filter0_f_2040_10244" x="0.333334" y="0.333334" width="60.1668" height="60.1666" filterUnits="userSpaceOnUse" color-interpolation-filters="sRGB">
<feFlood flood-opacity="0" result="BackgroundImageFix"/>
<feBlend mode="normal" in="SourceGraphic" in2="BackgroundImageFix" result="shape"/>
<feGaussianBlur stdDeviation="6.33333" result="effect1_foregroundBlur_2040_10244"/>
</filter>
<clipPath id="clip0_2040_10244">
<rect width="22" height="22" fill="white" transform="translate(19 19)"/>
</clipPath>
</defs>
</svg>
