<svg width="205" height="59" viewBox="0 0 205 59" fill="none" xmlns="http://www.w3.org/2000/svg">
<path d="M3.8216 58.0108V18.4845H7.97077L8.35293 22.9612C8.93527 22.0877 9.6814 21.2688 10.5913 20.5044C11.5012 19.7037 12.5931 19.0668 13.867 18.5936C15.1408 18.0841 16.5967 17.8293 18.2345 17.8293C20.9278 17.8293 23.2572 18.4663 25.2226 19.7401C27.2244 21.014 28.7712 22.7428 29.8631 24.9266C30.9914 27.074 31.5555 29.5307 31.5555 32.2968C31.5555 35.0629 30.9914 37.5379 29.8631 39.7217C28.7712 41.869 27.2244 43.5615 25.2226 44.7989C23.2208 46.0364 20.8732 46.6551 18.1799 46.6551C15.9597 46.6551 13.9944 46.2002 12.2837 45.2903C10.6095 44.3804 9.31743 43.1065 8.40753 41.4687V58.0108H3.8216ZM17.6886 42.6697C19.472 42.6697 21.0552 42.233 22.4383 41.3595C23.8213 40.486 24.895 39.2849 25.6593 37.7563C26.4601 36.1912 26.8604 34.3532 26.8604 32.2422C26.8604 30.1676 26.4601 28.3478 25.6593 26.7828C24.895 25.2178 23.8213 23.9985 22.4383 23.125C21.0552 22.2515 19.472 21.8147 17.6886 21.8147C15.8688 21.8147 14.2673 22.2515 12.8843 23.125C11.5012 23.9985 10.4275 25.2178 9.6632 26.7828C8.89888 28.3478 8.51672 30.1676 8.51672 32.2422C8.51672 34.3532 8.89888 36.1912 9.6632 37.7563C10.4275 39.2849 11.5012 40.486 12.8843 41.3595C14.2673 42.233 15.8688 42.6697 17.6886 42.6697ZM37.9964 46V18.4845H42.1456L42.4731 23.7255C43.0919 22.488 43.8744 21.4325 44.8207 20.559C45.8034 19.6855 46.9681 19.0122 48.3147 18.539C49.6978 18.0659 51.2628 17.8293 53.0098 17.8293V22.6336H51.3174C50.1527 22.6336 49.0426 22.7974 47.9871 23.125C46.9317 23.4161 45.9854 23.9075 45.1482 24.599C44.3475 25.2905 43.7106 26.2368 43.2374 27.4379C42.8007 28.6026 42.5823 30.0585 42.5823 31.8055V46H37.9964ZM69.4734 46.6551C66.9257 46.6551 64.6327 46.0728 62.5945 44.9081C60.5564 43.707 58.9549 42.0328 57.7902 39.8854C56.6256 37.7017 56.0432 35.1721 56.0432 32.2968C56.0432 29.3487 56.6256 26.801 57.7902 24.6536C58.9913 22.4698 60.611 20.7956 62.6491 19.6309C64.7237 18.4299 67.0349 17.8293 69.5826 17.8293C72.2032 17.8293 74.5143 18.4299 76.5161 19.6309C78.5543 20.7956 80.1557 22.4698 81.3204 24.6536C82.5215 26.801 83.122 29.3305 83.122 32.2422C83.122 35.1539 82.5215 37.7017 81.3204 39.8854C80.1193 42.0328 78.4997 43.707 76.4615 44.9081C74.4233 46.0728 72.094 46.6551 69.4734 46.6551ZM69.528 42.7243C71.0931 42.7243 72.5489 42.3422 73.8956 41.5779C75.2422 40.7771 76.3341 39.5943 77.1712 38.0292C78.0084 36.4642 78.4269 34.5352 78.4269 32.2422C78.4269 29.9129 78.0084 27.9839 77.1712 26.4552C76.3705 24.8902 75.2968 23.7255 73.9502 22.9612C72.6399 22.1605 71.1841 21.7601 69.5826 21.7601C68.054 21.7601 66.5981 22.1605 65.2151 22.9612C63.8684 23.7255 62.7765 24.8902 61.9394 26.4552C61.1387 27.9839 60.7383 29.9129 60.7383 32.2422C60.7383 34.5352 61.1387 36.4642 61.9394 38.0292C62.7765 39.5943 63.8502 40.7771 65.1605 41.5779C66.5071 42.3422 67.963 42.7243 69.528 42.7243ZM85.6491 46L94.9848 32.2422L85.6491 18.4845H90.6718L98.0966 29.7309L105.631 18.4845H110.544L101.209 32.2422L110.544 46H105.631L98.0966 34.699L90.6718 46H85.6491ZM115.9 46V18.4845H120.485V46H115.9ZM118.192 12.6429C117.283 12.6429 116.518 12.3517 115.9 11.7693C115.317 11.1506 115.026 10.3863 115.026 9.47638C115.026 8.56648 115.317 7.83855 115.9 7.29261C116.518 6.71027 117.283 6.4191 118.192 6.4191C119.066 6.4191 119.812 6.71027 120.431 7.29261C121.05 7.83855 121.359 8.56648 121.359 9.47638C121.359 10.3863 121.05 11.1506 120.431 11.7693C119.812 12.3517 119.066 12.6429 118.192 12.6429ZM128.578 46V18.4845H132.727L133 22.4152C133.874 20.9958 135.039 19.8857 136.494 19.085C137.987 18.2479 139.606 17.8293 141.353 17.8293C142.773 17.8293 144.047 18.0295 145.175 18.4299C146.34 18.7938 147.359 19.3762 148.232 20.1769C149.106 20.9412 149.815 21.9239 150.361 23.125C151.308 21.4507 152.6 20.1587 154.238 19.2488C155.912 18.3025 157.695 17.8293 159.588 17.8293C161.699 17.8293 163.537 18.2661 165.102 19.1396C166.703 19.9767 167.923 21.2688 168.76 23.0158C169.633 24.7264 170.07 26.9102 170.07 29.5671V46H165.539V30.0585C165.539 27.2923 164.974 25.2178 163.846 23.8347C162.718 22.4516 161.135 21.7601 159.096 21.7601C157.677 21.7601 156.403 22.1423 155.275 22.9066C154.147 23.6345 153.255 24.7082 152.6 26.1277C151.945 27.5471 151.617 29.2941 151.617 31.3687V46H147.031V30.0585C147.031 27.2923 146.467 25.2178 145.339 23.8347C144.21 22.4516 142.609 21.7601 140.534 21.7601C139.151 21.7601 137.896 22.1423 136.767 22.9066C135.675 23.6345 134.802 24.7082 134.147 26.1277C133.492 27.5471 133.164 29.2941 133.164 31.3687V46H128.578Z" fill="white"/>
<path d="M179.495 46.0148H173.727L186.782 17.4741H191.944L205 46.0148H199.535L189.363 23.5466L179.495 46.0148Z" fill="url(#paint0_linear_1691_17540)"/>
<path d="M192.248 42.9791C192.248 44.656 190.888 46.0153 189.212 46.0153C187.535 46.0153 186.175 44.656 186.175 42.9791C186.175 41.3023 187.535 39.9429 189.212 39.9429C190.888 39.9429 192.248 41.3023 192.248 42.9791Z" fill="url(#paint1_linear_1691_17540)"/>
<defs>
<linearGradient id="paint0_linear_1691_17540" x1="189.363" y1="17.4741" x2="179.003" y2="47.8126" gradientUnits="userSpaceOnUse">
<stop stop-color="#E45B3E"/>
<stop offset="1" stop-color="#6C48A4"/>
</linearGradient>
<linearGradient id="paint1_linear_1691_17540" x1="189.363" y1="17.4746" x2="179.003" y2="47.8131" gradientUnits="userSpaceOnUse">
<stop stop-color="#E45B3E"/>
<stop offset="1" stop-color="#6C48A4"/>
</linearGradient>
</defs>
</svg>
