<svg width="352" height="89" viewBox="0 0 352 89" fill="none" xmlns="http://www.w3.org/2000/svg">
<path d="M6.56106 88.6205V20.7604H13.6845L14.3406 28.4462C15.3404 26.9465 16.6213 25.5406 18.1835 24.2284C19.7457 22.8537 21.6202 21.7602 23.8073 20.9479C25.9943 20.073 28.4937 19.6356 31.3056 19.6356C35.9296 19.6356 39.9287 20.7292 43.303 22.9162C46.7397 25.1032 49.3954 28.0713 51.27 31.8205C53.207 35.5072 54.1756 39.725 54.1756 44.4739C54.1756 49.2229 53.207 53.4719 51.27 57.2211C49.3954 60.9078 46.7397 63.8134 43.303 65.938C39.8662 68.0625 35.8359 69.1248 31.2119 69.1248C27.4002 69.1248 24.026 68.3437 21.0891 66.7815C18.2147 65.2194 15.9965 63.0323 14.4343 60.2205V88.6205H6.56106ZM30.3683 62.2825C33.4301 62.2825 36.1483 61.5327 38.5228 60.033C40.8973 58.5333 42.7406 56.4713 44.0528 53.8469C45.4275 51.16 46.1149 48.0044 46.1149 44.3802C46.1149 40.8185 45.4275 37.6942 44.0528 35.0073C42.7406 32.3204 40.8973 30.2271 38.5228 28.7274C36.1483 27.2277 33.4301 26.4779 30.3683 26.4779C27.244 26.4779 24.4946 27.2277 22.1201 28.7274C19.7457 30.2271 17.9023 32.3204 16.5901 35.0073C15.2779 37.6942 14.6218 40.8185 14.6218 44.3802C14.6218 48.0044 15.2779 51.16 16.5901 53.8469C17.9023 56.4713 19.7457 58.5333 22.1201 60.033C24.4946 61.5327 27.244 62.2825 30.3683 62.2825ZM65.2334 68V20.7604H72.3569L72.9193 29.7584C73.9815 27.6339 75.325 25.8218 76.9496 24.3221C78.6367 22.8224 80.6363 21.6664 82.9483 20.8541C85.3228 20.0418 88.0097 19.6356 91.009 19.6356V27.8838H88.1034C86.1039 27.8838 84.198 28.165 82.3859 28.7274C80.5738 29.2273 78.9492 30.0708 77.512 31.2581C76.1373 32.4453 75.0438 34.07 74.2315 36.132C73.4816 38.1316 73.1067 40.631 73.1067 43.6304V68H65.2334ZM119.274 69.1248C114.9 69.1248 110.964 68.125 107.464 66.1254C103.965 64.0634 101.216 61.189 99.2162 57.5023C97.2166 53.7531 96.2169 49.4103 96.2169 44.4739C96.2169 39.4125 97.2166 35.0385 99.2162 31.3518C101.278 27.6026 104.059 24.7283 107.558 22.7287C111.12 20.6667 115.088 19.6356 119.462 19.6356C123.961 19.6356 127.929 20.6667 131.365 22.7287C134.865 24.7283 137.614 27.6026 139.614 31.3518C141.676 35.0385 142.707 39.3813 142.707 44.3802C142.707 49.3791 141.676 53.7531 139.614 57.5023C137.552 61.189 134.771 64.0634 131.272 66.1254C127.772 68.125 123.773 69.1248 119.274 69.1248ZM119.368 62.3762C122.055 62.3762 124.554 61.7201 126.866 60.4079C129.178 59.0332 131.053 57.0024 132.49 54.3155C133.927 51.6286 134.646 48.3168 134.646 44.3802C134.646 40.3811 133.927 37.0693 132.49 34.4449C131.115 31.758 129.272 29.7584 126.96 28.4462C124.711 27.0715 122.211 26.3842 119.462 26.3842C116.837 26.3842 114.338 27.0715 111.963 28.4462C109.651 29.7584 107.777 31.758 106.34 34.4449C104.965 37.0693 104.278 40.3811 104.278 44.3802C104.278 48.3168 104.965 51.6286 106.34 54.3155C107.777 57.0024 109.62 59.0332 111.87 60.4079C114.182 61.7201 116.681 62.3762 119.368 62.3762ZM147.045 68L163.073 44.3802L147.045 20.7604H155.668L168.416 40.0686L181.35 20.7604H189.786L173.758 44.3802L189.786 68H181.35L168.416 48.598L155.668 68H147.045ZM198.98 68V20.7604H206.853V68H198.98ZM202.917 10.7314C201.355 10.7314 200.042 10.2315 198.98 9.23168C197.98 8.16941 197.48 6.8572 197.48 5.29505C197.48 3.73289 197.98 2.48317 198.98 1.54587C200.042 0.546094 201.355 0.0462044 202.917 0.0462044C204.416 0.0462044 205.697 0.546094 206.76 1.54587C207.822 2.48317 208.353 3.73289 208.353 5.29505C208.353 6.8572 207.822 8.16941 206.76 9.23168C205.697 10.2315 204.416 10.7314 202.917 10.7314ZM220.747 68V20.7604H227.871L228.339 27.5089C229.839 25.0719 231.839 23.1661 234.338 21.7914C236.9 20.3542 239.681 19.6356 242.68 19.6356C245.117 19.6356 247.304 19.9793 249.241 20.6667C251.241 21.2915 252.99 22.2913 254.49 23.666C255.99 24.9782 257.208 26.6653 258.145 28.7274C259.77 25.853 261.988 23.6348 264.8 22.0726C267.674 20.448 270.736 19.6356 273.986 19.6356C277.61 19.6356 280.765 20.3855 283.452 21.8851C286.202 23.3223 288.295 25.5406 289.732 28.5399C291.232 31.4768 291.982 35.226 291.982 39.7875V68H284.202V40.631C284.202 35.8821 283.234 32.3204 281.296 29.9459C279.359 27.5714 276.641 26.3842 273.142 26.3842C270.705 26.3842 268.518 27.0403 266.581 28.3525C264.644 29.6022 263.113 31.4455 261.988 33.8825C260.863 36.3195 260.301 39.3188 260.301 42.8805V68H252.428V40.631C252.428 35.8821 251.459 32.3204 249.522 29.9459C247.585 27.5714 244.836 26.3842 241.274 26.3842C238.9 26.3842 236.744 27.0403 234.807 28.3525C232.932 29.6022 231.432 31.4455 230.308 33.8825C229.183 36.3195 228.621 39.3188 228.621 42.8805V68H220.747Z" fill="black"/>
<path d="M308.164 67.9996H298.26L320.675 19H329.536L351.951 67.9996H342.568L325.105 29.4255L308.164 67.9996Z" fill="url(#paint0_linear_27_188)"/>
<path d="M330.058 62.7881C330.058 65.667 327.724 68.0006 324.845 68.0006C321.966 68.0006 319.632 65.667 319.632 62.7881C319.632 59.9092 321.966 57.5753 324.845 57.5753C327.724 57.5753 330.058 59.9092 330.058 62.7881Z" fill="url(#paint1_linear_27_188)"/>
<defs>
<linearGradient id="paint0_linear_27_188" x1="325.105" y1="19" x2="307.318" y2="71.0861" gradientUnits="userSpaceOnUse">
<stop stop-color="#E45B3E"/>
<stop offset="1" stop-color="#6C48A4"/>
</linearGradient>
<linearGradient id="paint1_linear_27_188" x1="325.106" y1="19.001" x2="307.319" y2="71.0871" gradientUnits="userSpaceOnUse">
<stop stop-color="#E45B3E"/>
<stop offset="1" stop-color="#6C48A4"/>
</linearGradient>
</defs>
</svg>
