<svg width="61" height="61" viewBox="0 0 61 61" fill="none" xmlns="http://www.w3.org/2000/svg">
<g opacity="0.4" filter="url(#filter0_f_2040_10243)">
<circle cx="30.4167" cy="30.4167" r="17.4167" fill="#7B57E0"/>
</g>
<path d="M30.9165 38.3334C30.6415 38.3334 30.4581 38.2418 30.2748 38.0584L24.7748 32.5584C24.4998 32.2834 24.4081 31.9167 24.5915 31.5501C24.6831 31.1834 25.0498 31.0001 25.4165 31.0001H28.1665C28.8998 31.0001 29.6331 30.7251 30.0915 30.1751C30.6415 29.7167 30.9165 28.9834 30.9165 28.2501C30.9165 27.5167 30.6415 26.7834 30.0915 26.3251C29.6331 25.7751 28.8998 25.5001 28.1665 25.5001H25.4165C24.8665 25.5001 24.4998 25.1334 24.4998 24.5834C24.4998 24.0334 24.8665 23.6667 25.4165 23.6667H35.4998C36.0498 23.6667 36.4165 24.0334 36.4165 24.5834C36.4165 25.1334 36.0498 25.5001 35.4998 25.5001H31.8331C32.3831 26.3251 32.7498 27.2417 32.7498 28.2501C32.7498 29.4417 32.2915 30.6334 31.3748 31.4584C30.5498 32.3751 29.3581 32.8334 28.1665 32.8334H27.6165L31.5581 36.7751C31.9248 37.1417 31.9248 37.6918 31.5581 38.0584C31.3748 38.2418 31.1915 38.3334 30.9165 38.3334Z" fill="white"/>
<path d="M35.5 29.1666H25.4167C24.8667 29.1666 24.5 28.7999 24.5 28.2499C24.5 27.6999 24.8667 27.3333 25.4167 27.3333H35.5C36.05 27.3333 36.4167 27.6999 36.4167 28.2499C36.4167 28.7999 36.05 29.1666 35.5 29.1666Z" fill="white"/>
<defs>
<filter id="filter0_f_2040_10243" x="0.333334" y="0.333334" width="60.1668" height="60.1666" filterUnits="userSpaceOnUse" color-interpolation-filters="sRGB">
<feFlood flood-opacity="0" result="BackgroundImageFix"/>
<feBlend mode="normal" in="SourceGraphic" in2="BackgroundImageFix" result="shape"/>
<feGaussianBlur stdDeviation="6.33333" result="effect1_foregroundBlur_2040_10243"/>
</filter>
</defs>
</svg>
