<svg width="44" height="40" viewBox="0 0 44 40" fill="none" xmlns="http://www.w3.org/2000/svg">
<path d="M22.1666 24C22.0791 24.3174 21.9299 24.6144 21.7276 24.8741C21.5252 25.1338 21.2737 25.3511 20.9874 25.5136C20.7011 25.6761 20.3856 25.7806 20.0589 25.8212C19.7322 25.8617 19.4007 25.8376 19.0833 25.75C18.7659 25.6625 18.4689 25.5133 18.2092 25.3109C17.9495 25.1086 17.7322 24.8571 17.5697 24.5708C17.4072 24.2845 17.3027 23.969 17.2621 23.6422C17.2216 23.3155 17.2458 22.984 17.3333 22.6667M15 19.1667L30 15V25L15 21.6667V19.1667Z" stroke="#2B2E48" stroke-width="1.5" stroke-linecap="round" stroke-linejoin="round"/>
</svg>
