<svg width="18" height="18" viewBox="0 0 18 18" fill="none" xmlns="http://www.w3.org/2000/svg">
<path d="M8.91667 11.8335L6.41667 9.33354M8.91667 11.8335C10.0807 11.3908 11.1974 10.8325 12.25 10.1669M8.91667 11.8335V16.0002C8.91667 16.0002 11.4417 15.5419 12.25 14.3335C13.15 12.9835 12.25 10.1669 12.25 10.1669M6.41667 9.33354C6.86012 8.18306 7.4185 7.08026 8.08333 6.04187C9.05432 4.48936 10.4064 3.21108 12.0108 2.32862C13.6153 1.44615 15.4189 0.988849 17.25 1.00021C17.25 3.26687 16.6 7.25021 12.25 10.1669M6.41667 9.33354L2.25 9.33355C2.25 9.33355 2.70833 6.80855 3.91667 6.00022C5.26667 5.10022 8.08333 6.00022 8.08333 6.00022M2.66667 13.0835C1.41667 14.1335 1 17.2502 1 17.2502C1 17.2502 4.11667 16.8335 5.16667 15.5835C5.75833 14.8835 5.75 13.8085 5.09167 13.1585C4.76776 12.8493 4.34108 12.6707 3.89352 12.6569C3.44597 12.643 3.00906 12.7949 2.66667 13.0835Z" stroke="white" stroke-width="1.5" stroke-linecap="round" stroke-linejoin="round"/>
</svg>
