<svg width="21" height="21" viewBox="0 0 21 21" fill="none" xmlns="http://www.w3.org/2000/svg">
<g clip-path="url(#clip0_449_2742)">
<path d="M13.0642 3.55029H3.62717C2.74167 3.55029 2.02246 4.2695 2.02246 5.155V18.6953C2.02246 19.5808 2.74167 20.3 3.62717 20.3H13.0642C13.9497 20.3 14.6689 19.5808 14.6689 18.6953V5.155C14.6647 4.2695 13.9455 3.55029 13.0642 3.55029ZM13.5423 18.6911C13.5423 18.9572 13.3261 19.1733 13.06 19.1733H3.62301C3.35695 19.1733 3.14077 18.9572 3.14077 18.6911V5.155C3.14077 4.88894 3.35695 4.67276 3.62301 4.67276H13.06C13.3261 4.67276 13.5423 4.88894 13.5423 5.155V18.6911Z" fill="white"/>
<path d="M16.6727 0H7.23569C6.35019 0 5.63098 0.719209 5.63098 1.60471C5.63098 1.91651 5.88042 2.16594 6.19221 2.16594C6.50401 2.16594 6.75345 1.91651 6.75345 1.60471C6.75345 1.33864 6.96963 1.12247 7.23569 1.12247H16.6727C16.9388 1.12247 17.155 1.33864 17.155 1.60471V15.145C17.155 15.411 16.9388 15.6272 16.6727 15.6272C16.3609 15.6272 16.1115 15.8766 16.1115 16.1884C16.1115 16.5002 16.3609 16.7497 16.6727 16.7497C17.5582 16.7497 18.2774 16.0305 18.2774 15.145V1.60471C18.2774 0.719209 17.5582 0 16.6727 0Z" fill="white"/>
</g>
<defs>
<clipPath id="clip0_449_2742">
<rect width="20.3" height="20.3" fill="white"/>
</clipPath>
</defs>
</svg>
