<svg width="13" height="12" viewBox="0 0 13 12" fill="none" xmlns="http://www.w3.org/2000/svg">
<path fill-rule="evenodd" clip-rule="evenodd" d="M12.0029 1.20464C12.0428 1.24444 12.0745 1.29173 12.0961 1.3438C12.1177 1.39586 12.1288 1.45167 12.1288 1.50804C12.1288 1.56441 12.1177 1.62023 12.0961 1.67229C12.0745 1.72435 12.0428 1.77164 12.0029 1.81145L6.00332 7.81103C5.96351 7.85094 5.91622 7.8826 5.86416 7.9042C5.8121 7.92581 5.75628 7.93693 5.69991 7.93693C5.64355 7.93693 5.58773 7.92581 5.53567 7.9042C5.48361 7.8826 5.43632 7.85094 5.39651 7.81103L2.82526 5.23978C2.78542 5.19994 2.75381 5.15263 2.73225 5.10058C2.71068 5.04852 2.69958 4.99272 2.69958 4.93637C2.69958 4.88002 2.71068 4.82423 2.73225 4.77217C2.75381 4.72011 2.78542 4.67281 2.82526 4.63297C2.8651 4.59312 2.91241 4.56152 2.96446 4.53995C3.01652 4.51839 3.07232 4.50729 3.12867 4.50729C3.18502 4.50729 3.24081 4.51839 3.29287 4.53995C3.34493 4.56152 3.39223 4.59312 3.43207 4.63297L5.69991 6.90166L11.3961 1.20464C11.4359 1.16473 11.4832 1.13306 11.5352 1.11146C11.5873 1.08986 11.6431 1.07874 11.6995 1.07874C11.7559 1.07874 11.8117 1.08986 11.8637 1.11146C11.9158 1.13306 11.9631 1.16473 12.0029 1.20464Z" fill="#2DC071"/>
<path fill-rule="evenodd" clip-rule="evenodd" d="M5.69995 1.07949C4.76762 1.07949 3.85622 1.35595 3.08102 1.87393C2.30581 2.39191 1.70161 3.12813 1.34482 3.98949C0.988037 4.85085 0.894685 5.79867 1.07657 6.71309C1.25846 7.6275 1.70742 8.46745 2.36668 9.12671C3.02594 9.78597 3.86589 10.2349 4.7803 10.4168C5.69472 10.5987 6.64254 10.5054 7.5039 10.1486C8.36526 9.79178 9.10148 9.18758 9.61946 8.41237C10.1374 7.63717 10.4139 6.72577 10.4139 5.79344C10.4139 5.67978 10.4591 5.57078 10.5394 5.49042C10.6198 5.41005 10.7288 5.3649 10.8424 5.3649C10.9561 5.3649 11.0651 5.41005 11.1455 5.49042C11.2258 5.57078 11.271 5.67978 11.271 5.79344C11.2708 7.01978 10.866 8.21181 10.1194 9.18465C9.37271 10.1575 8.32591 10.8568 7.14132 11.1741C5.95673 11.4914 4.70055 11.4089 3.56759 10.9395C2.43464 10.4701 1.48822 9.64002 0.875113 8.57793C0.262008 7.51585 0.0164814 6.28114 0.17661 5.06529C0.336739 3.84945 0.893575 2.72041 1.76076 1.85328C2.62794 0.986151 3.75702 0.429388 4.97287 0.269337C6.18873 0.109286 7.42342 0.354892 8.48547 0.968065C8.53668 0.994855 8.58195 1.03173 8.61854 1.07647C8.65513 1.1212 8.6823 1.17288 8.6984 1.22839C8.7145 1.2839 8.71921 1.34209 8.71224 1.39946C8.70527 1.45684 8.68677 1.51221 8.65785 1.56225C8.62892 1.61229 8.59018 1.65596 8.54394 1.69063C8.4977 1.72531 8.44492 1.75027 8.38878 1.76403C8.33265 1.77778 8.27431 1.78003 8.21728 1.77065C8.16025 1.76127 8.1057 1.74045 8.05693 1.70944C7.3406 1.29521 6.52743 1.07787 5.69995 1.07949Z" fill="#2DC071"/>
</svg>
