<svg width="44" height="40" viewBox="0 0 44 40" fill="none" xmlns="http://www.w3.org/2000/svg">
<path d="M28.1826 23.4248L28.1826 23.4247C28.3649 23.1143 28.2611 22.7151 27.9508 22.5326L27.9506 22.5326C27.6398 22.3501 27.2411 22.4543 27.0586 22.7643L27.0585 22.7645C25.9057 24.7268 23.7752 25.9464 21.5 25.9464C17.9456 25.9464 15.0536 23.0544 15.0536 19.5C15.0536 15.9456 17.9456 13.0536 21.5 13.0536C25.0544 13.0536 27.9464 15.9456 27.9464 19.5C27.9464 20.0814 27.8703 20.6523 27.7206 21.1969C27.6251 21.5441 27.8293 21.9026 28.1763 21.9981L28.1764 21.9981C28.5225 22.0932 28.882 21.8899 28.9775 21.5424C29.1585 20.8842 29.25 20.197 29.25 19.5C29.25 15.2264 25.7736 11.75 21.5 11.75C17.2264 11.75 13.75 15.2264 13.75 19.5C13.75 23.7736 17.2264 27.25 21.5 27.25C24.2362 27.25 26.7962 25.7846 28.1826 23.4248Z" fill="#2B2E48" stroke="#2B2E48" stroke-width="0.5"/>
<path d="M21.4996 22.9015C21.8596 22.9015 22.1513 22.6097 22.1513 22.2497V20.1513H24.2497C24.6097 20.1513 24.9015 19.8596 24.9015 19.4996C24.9015 19.1395 24.6097 18.8478 24.2497 18.8478H22.1513V16.7494C22.1513 16.3894 21.8596 16.0977 21.4996 16.0977C21.1395 16.0977 20.8478 16.3894 20.8478 16.7494V18.8478H18.7494C18.3894 18.8478 18.0977 19.1395 18.0977 19.4996C18.0977 19.8596 18.3894 20.1513 18.7494 20.1513H20.8478V22.2497C20.8478 22.6097 21.1395 22.9015 21.4996 22.9015Z" fill="#2B2E48" stroke="#2B2E48" stroke-width="0.5"/>
</svg>
