<svg width="44" height="40" viewBox="0 0 44 40" fill="none" xmlns="http://www.w3.org/2000/svg">
<path d="M24 25.5C24 24.3065 23.5259 23.1619 22.682 22.318C21.8381 21.4741 20.6935 21 19.5 21M19.5 21C18.3065 21 17.1619 21.4741 16.318 22.318C15.4741 23.1619 15 24.3065 15 25.5M19.5 21C21.1569 21 22.5 19.6569 22.5 18C22.5 16.3431 21.1569 15 19.5 15C17.8431 15 16.5 16.3431 16.5 18C16.5 19.6569 17.8431 21 19.5 21ZM30 25.5C30 24.3065 29.5259 23.1619 28.682 22.318C27.8381 21.4741 26.6935 21 25.5 21C26.2956 21 27.0587 20.6839 27.6213 20.1213C28.1839 19.5587 28.5 18.7956 28.5 18C28.5 17.2044 28.1839 16.4413 27.6213 15.8787C27.0587 15.3161 26.2956 15 25.5 15" stroke="#2B2E48" stroke-width="1.5" stroke-linecap="round" stroke-linejoin="round"/>
</svg>
