<svg width="257" height="101" viewBox="0 0 257 101" fill="none" xmlns="http://www.w3.org/2000/svg">
<g clip-path="url(#clip0_882_2)">
<path d="M0 76.7207V0.125H11.2766V76.7207H0Z" fill="white"/>
<path d="M50.7695 77.9968C45.5922 77.9968 40.9823 76.8621 36.9397 74.5926C32.9681 72.2522 29.8475 69.0252 27.578 64.9117C25.3085 60.7983 24.1738 56.011 24.1738 50.55C24.1738 45.0181 25.2731 40.16 27.4716 35.9756C29.7411 31.7912 32.8617 28.5288 36.8333 26.1883C40.8759 23.8479 45.5567 22.6777 50.8759 22.6777C56.0532 22.6777 60.5567 23.8479 64.3865 26.1883C68.2163 28.4578 71.195 31.5075 73.3227 35.3373C75.4504 39.1671 76.5142 43.3869 76.5142 47.9968C76.5142 48.7061 76.4787 49.4862 76.4078 50.3373C76.4078 51.1174 76.3723 52.0039 76.3014 52.9968H35.2376C35.5922 58.1032 37.2589 62.0039 40.2376 64.699C43.2872 67.3231 46.7979 68.6351 50.7695 68.6351C53.961 68.6351 56.6206 67.9259 58.7482 66.5075C60.9468 65.0181 62.578 63.0323 63.6418 60.55H74.9184C73.5 65.5146 70.6631 69.6635 66.4078 72.9968C62.2234 76.3302 57.0106 77.9968 50.7695 77.9968ZM50.7695 31.933C47.0106 31.933 43.6773 33.0678 40.7695 35.3373C37.8617 37.5359 36.0887 40.8692 35.4504 45.3373H65.2376C65.0248 41.2238 63.5709 37.9614 60.8759 35.55C58.1809 33.1387 54.8121 31.933 50.7695 31.933Z" fill="white"/>
<path d="M143.418 100.125V23.9543H153.524L154.694 32.1458C156.396 29.6635 158.737 27.4649 161.715 25.55C164.694 23.6351 168.524 22.6777 173.205 22.6777C178.311 22.6777 182.815 23.8834 186.715 26.2947C190.616 28.7061 193.666 32.0039 195.864 36.1883C198.134 40.3727 199.269 45.1245 199.269 50.4437C199.269 55.7628 198.134 60.5146 195.864 64.699C193.666 68.8124 190.616 72.0749 186.715 74.4862C182.815 76.8266 178.276 77.9968 173.098 77.9968C168.985 77.9968 165.332 77.1812 162.141 75.55C159.02 73.9188 156.538 71.6139 154.694 68.6351V100.125H143.418ZM171.183 68.2096C176.006 68.2096 179.978 66.5784 183.098 63.316C186.219 59.9827 187.779 55.6564 187.779 50.3373C187.779 46.8621 187.07 43.777 185.652 41.0819C184.233 38.3869 182.283 36.2947 179.801 34.8054C177.318 33.2451 174.446 32.4649 171.183 32.4649C166.361 32.4649 162.389 34.1316 159.269 37.4649C156.219 40.7983 154.694 45.089 154.694 50.3373C154.694 55.6564 156.219 59.9827 159.269 63.316C162.389 66.5784 166.361 68.2096 171.183 68.2096Z" fill="white"/>
<path d="M204.295 76.721L223.018 50.3381L204.295 23.9551H216.316L230.465 44.1679L244.507 23.9551H256.635L237.912 50.3381L256.635 76.721H244.507L230.465 56.5083L216.316 76.721H204.295Z" fill="white"/>
<path d="M91.1834 75.3097H80.791L104.311 23.8945H113.61L137.129 75.3097H127.284L108.96 34.8339L91.1834 75.3097Z" fill="url(#paint0_linear_882_2)"/>
<path d="M114.157 69.8408C114.157 72.8617 111.708 75.3105 108.687 75.3105C105.666 75.3105 103.217 72.8617 103.217 69.8408C103.217 66.82 105.666 64.3711 108.687 64.3711C111.708 64.3711 114.157 66.82 114.157 69.8408Z" fill="url(#paint1_linear_882_2)"/>
</g>
<defs>
<linearGradient id="paint0_linear_882_2" x1="108.96" y1="23.8982" x2="90.2956" y2="78.5518" gradientUnits="userSpaceOnUse">
<stop stop-color="#E45B3E"/>
<stop offset="1" stop-color="#6C48A4"/>
</linearGradient>
<linearGradient id="paint1_linear_882_2" x1="108.96" y1="23.899" x2="90.2958" y2="78.5526" gradientUnits="userSpaceOnUse">
<stop stop-color="#E45B3E"/>
<stop offset="1" stop-color="#6C48A4"/>
</linearGradient>
<clipPath id="clip0_882_2">
<rect width="257" height="101" fill="white"/>
</clipPath>
</defs>
</svg>
