<svg width="44" height="40" viewBox="0 0 44 40" fill="none" xmlns="http://www.w3.org/2000/svg">
<path d="M17.8335 11.6667C17.1705 11.6667 16.5346 11.9301 16.0657 12.3989C15.5969 12.8677 15.3335 13.5036 15.3335 14.1667V25.8333C15.3335 26.4964 15.5969 27.1323 16.0657 27.6011C16.5346 28.0699 17.1705 28.3333 17.8335 28.3333H26.1668C26.8299 28.3333 27.4658 28.0699 27.9346 27.6011C28.4034 27.1323 28.6668 26.4964 28.6668 25.8333V25C28.6668 24.5398 28.2937 24.1667 27.8335 24.1667C27.3733 24.1667 27.0002 24.5398 27.0002 25V25.8333C27.0002 26.0543 26.9124 26.2663 26.7561 26.4226C26.5998 26.5789 26.3878 26.6667 26.1668 26.6667H17.8335C17.6125 26.6667 17.4005 26.5789 17.2442 26.4226C17.088 26.2663 17.0002 26.0543 17.0002 25.8333V14.1667C17.0002 13.9457 17.088 13.7337 17.2442 13.5774C17.4005 13.4211 17.6125 13.3333 17.8335 13.3333H26.1668C26.3878 13.3333 26.5998 13.4211 26.7561 13.5774C26.9124 13.7337 27.0002 13.9457 27.0002 14.1667V15C27.0002 15.4602 27.3733 15.8333 27.8335 15.8333C28.2937 15.8333 28.6668 15.4602 28.6668 15V14.1667C28.6668 13.5036 28.4034 12.8677 27.9346 12.3989C27.4658 11.9301 26.8299 11.6667 26.1668 11.6667H17.8335Z" fill="#D55F5A"/>
<path d="M25.9228 16.9107C25.5973 16.5853 25.0697 16.5853 24.7442 16.9107C24.4188 17.2362 24.4188 17.7638 24.7442 18.0893L25.8217 19.1667H22.0002C21.5399 19.1667 21.1668 19.5398 21.1668 20C21.1668 20.4602 21.5399 20.8333 22.0002 20.8333H25.8217L24.7442 21.9107C24.4188 22.2362 24.4188 22.7638 24.7442 23.0893C25.0697 23.4147 25.5973 23.4147 25.9228 23.0893L28.4228 20.5893C28.7482 20.2638 28.7482 19.7362 28.4228 19.4107L25.9228 16.9107Z" fill="#D55F5A"/>
</svg>
