<svg width="24" height="16" viewBox="0 0 24 16" fill="none" xmlns="http://www.w3.org/2000/svg">
<g clip-path="url(#clip0_257_4238)">
<path d="M2.59229 10.5161C2.59229 11.4341 2.79343 12.136 3.05634 12.5617C3.19643 12.804 3.39818 13.005 3.64108 13.1441C3.88398 13.2832 4.15937 13.3555 4.43928 13.3537C5.11531 13.3537 5.73376 13.1868 6.92558 11.5376C7.88037 10.2164 9.00542 8.36611 9.76325 7.19766L11.0452 5.22799C11.9357 3.86006 12.9648 2.33941 14.1483 1.30533C15.1123 0.467381 16.153 0 17.2004 0C18.959 0 20.634 1.01906 21.916 2.93031C23.319 5.02351 24.0025 7.66004 24.0025 10.3809C24.0025 11.9983 23.6837 13.1868 23.1412 14.1257C22.6179 15.0338 21.593 15.941 19.8745 15.941V13.3537C21.3459 13.3537 21.7107 12.0017 21.7107 10.4543C21.7107 8.24927 21.1965 5.8022 20.064 4.05369C19.2603 2.81347 18.2187 2.05564 17.0727 2.05564C15.8334 2.05564 14.836 2.9904 13.7151 4.65711C13.1192 5.54263 12.5074 6.62178 11.8206 7.83948L11.0644 9.17485C9.54542 11.8681 9.16066 12.4816 8.40117 13.4939C7.07247 15.2733 5.93573 15.941 4.43928 15.941C2.66407 15.941 1.54152 15.1723 0.850466 14.0139C0.278759 13.07 0 11.8314 0 10.4201L2.59229 10.5161Z" fill="#0081FB"/>
<path d="M2.04395 3.11309C3.23243 1.28112 4.94755 0 6.91472 0C8.05396 0 9.18652 0.333843 10.3692 1.30282C11.6628 2.3586 13.0399 4.09709 14.7617 6.9623L15.3785 7.99054C16.8674 10.471 17.7154 11.7463 18.2103 12.3489C18.848 13.1217 19.2953 13.3504 19.8745 13.3504C21.3459 13.3504 21.7107 11.9983 21.7107 10.451L23.9975 10.3792C23.9975 11.9967 23.6787 13.1851 23.1362 14.1241C22.6179 15.0338 21.593 15.941 19.8745 15.941C18.8062 15.941 17.8598 15.709 16.8132 14.7217C16.0086 13.9638 15.068 12.6176 14.3444 11.4074L12.1919 7.81193C11.112 6.00751 10.1213 4.66212 9.54791 4.0562C8.9303 3.39769 8.13826 2.60648 6.87299 2.60648C5.84893 2.60648 4.97926 3.32508 4.25148 4.42426L2.04395 3.11309Z" fill="url(#paint0_linear_257_4238)"/>
<path d="M6.873 2.60648C5.84894 2.60648 4.97927 3.32508 4.2515 4.42426C3.22242 5.97747 2.59229 8.291 2.59229 10.5161C2.59229 11.4341 2.79343 12.136 3.05634 12.5617L0.846293 14.0139C0.278759 13.07 0 11.8314 0 10.4201C0 7.85366 0.70441 5.17875 2.04396 3.11309C3.23244 1.28112 4.94756 0 6.91473 0L6.873 2.60648Z" fill="url(#paint1_linear_257_4238)"/>
</g>
<defs>
<linearGradient id="paint0_linear_257_4238" x1="5.20294" y1="7.55738" x2="21.7282" y2="8.39199" gradientUnits="userSpaceOnUse">
<stop stop-color="#0064E1"/>
<stop offset="0.4" stop-color="#0064E1"/>
<stop offset="0.83" stop-color="#0073EE"/>
<stop offset="1" stop-color="#0082FB"/>
</linearGradient>
<linearGradient id="paint1_linear_257_4238" x1="3.45695" y1="11.6011" x2="3.45695" y2="5.50842" gradientUnits="userSpaceOnUse">
<stop stop-color="#0082FB"/>
<stop offset="1" stop-color="#0064E0"/>
</linearGradient>
<clipPath id="clip0_257_4238">
<rect width="24" height="15.941" fill="white"/>
</clipPath>
</defs>
</svg>
