<svg width="44" height="40" viewBox="0 0 44 40" fill="none" xmlns="http://www.w3.org/2000/svg">
<g clip-path="url(#clip0_539_4122)">
<path d="M20.3335 17.5C20.3335 17.0109 20.5159 16.698 20.7555 16.4948C21.0131 16.2762 21.3863 16.1458 21.7918 16.1458C22.1974 16.1458 22.5706 16.2762 22.8282 16.4948C23.0677 16.698 23.2502 17.0109 23.2502 17.5C23.2502 17.8643 23.1643 18.0666 23.0646 18.2161C22.9483 18.3906 22.7952 18.5283 22.5363 18.761L22.4844 18.8077C22.218 19.0474 21.8676 19.3714 21.6005 19.8434C21.3251 20.3298 21.1668 20.9176 21.1668 21.6667C21.1668 22.1269 21.5399 22.5 22.0002 22.5C22.4604 22.5 22.8335 22.1269 22.8335 21.6667C22.8335 21.1658 22.9356 20.8681 23.0509 20.6644C23.1744 20.4463 23.3448 20.2755 23.5993 20.0465C23.6222 20.0259 23.6464 20.0044 23.6715 19.9819C23.8993 19.7789 24.2112 19.5009 24.4514 19.1406C24.7423 18.7043 24.9168 18.1774 24.9168 17.5C24.9168 16.5308 24.5264 15.7499 23.9065 15.224C23.3048 14.7134 22.5321 14.4792 21.7918 14.4792C21.0515 14.4792 20.2789 14.7134 19.6772 15.224C19.0573 15.7499 18.6668 16.5308 18.6668 17.5C18.6668 17.9602 19.0399 18.3333 19.5002 18.3333C19.9604 18.3333 20.3335 17.9602 20.3335 17.5Z" fill="#2B2E48"/>
<path d="M22.6251 25.5597C22.9347 25.2192 22.9096 24.6922 22.5691 24.3826C22.2285 24.073 21.7015 24.0981 21.3919 24.4386L21.3836 24.4478C21.074 24.7883 21.099 25.3153 21.4396 25.6249C21.7801 25.9345 22.3072 25.9095 22.6168 25.5689L22.6251 25.5597Z" fill="#2B2E48"/>
<path fill-rule="evenodd" clip-rule="evenodd" d="M22.0002 10.8333C16.9374 10.8333 12.8335 14.9373 12.8335 20C12.8335 25.0627 16.9374 29.1667 22.0002 29.1667C27.0629 29.1667 31.1668 25.0627 31.1668 20C31.1668 14.9373 27.0629 10.8333 22.0002 10.8333ZM14.5002 20C14.5002 15.8577 17.8579 12.5 22.0002 12.5C26.1424 12.5 29.5002 15.8577 29.5002 20C29.5002 24.1423 26.1424 27.5 22.0002 27.5C17.8579 27.5 14.5002 24.1423 14.5002 20Z" fill="#2B2E48"/>
</g>
<defs>
<clipPath id="clip0_539_4122">
<rect width="20" height="20" fill="white" transform="translate(12 10)"/>
</clipPath>
</defs>
</svg>
