<svg width="44" height="40" viewBox="0 0 44 40" fill="none" xmlns="http://www.w3.org/2000/svg">
<path d="M21.9282 12H21.5982C21.2004 12 20.8188 12.158 20.5375 12.4393C20.2562 12.7206 20.0982 13.1022 20.0982 13.5V13.635C20.0979 13.898 20.0285 14.1564 19.8968 14.3841C19.7652 14.6119 19.576 14.801 19.3482 14.9325L19.0257 15.12C18.7977 15.2517 18.539 15.321 18.2757 15.321C18.0124 15.321 17.7537 15.2517 17.5257 15.12L17.4132 15.06C17.069 14.8614 16.6601 14.8076 16.2762 14.9102C15.8923 15.0129 15.5648 15.2637 15.3657 15.6075L15.2007 15.8925C15.0021 16.2367 14.9483 16.6456 15.0509 17.0295C15.1536 17.4134 15.4043 17.7408 15.7482 17.94L15.8607 18.015C16.0874 18.1459 16.2759 18.3338 16.4075 18.5601C16.539 18.7864 16.6091 19.0432 16.6107 19.305V19.6875C16.6117 19.9518 16.5429 20.2117 16.4112 20.4409C16.2795 20.67 16.0896 20.8603 15.8607 20.9925L15.7482 21.06C15.4043 21.2592 15.1536 21.5866 15.0509 21.9705C14.9483 22.3544 15.0021 22.7633 15.2007 23.1075L15.3657 23.3925C15.5648 23.7363 15.8923 23.9871 16.2762 24.0898C16.6601 24.1924 17.069 24.1386 17.4132 23.94L17.5257 23.88C17.7537 23.7483 18.0124 23.679 18.2757 23.679C18.539 23.679 18.7977 23.7483 19.0257 23.88L19.3482 24.0675C19.576 24.199 19.7652 24.3881 19.8968 24.6159C20.0285 24.8436 20.0979 25.102 20.0982 25.365V25.5C20.0982 25.8978 20.2562 26.2794 20.5375 26.5607C20.8188 26.842 21.2004 27 21.5982 27H21.9282C22.326 27 22.7075 26.842 22.9888 26.5607C23.2701 26.2794 23.4282 25.8978 23.4282 25.5V25.365C23.4285 25.102 23.4979 24.8436 23.6295 24.6159C23.7612 24.3881 23.9504 24.199 24.1782 24.0675L24.5007 23.88C24.7287 23.7483 24.9874 23.679 25.2507 23.679C25.514 23.679 25.7727 23.7483 26.0007 23.88L26.1132 23.94C26.4574 24.1386 26.8663 24.1924 27.2502 24.0898C27.6341 23.9871 27.9615 23.7363 28.1607 23.3925L28.3257 23.1C28.5242 22.7558 28.5781 22.3469 28.4755 21.963C28.3728 21.5791 28.122 21.2517 27.7782 21.0525L27.6657 20.9925C27.4368 20.8603 27.2469 20.67 27.1152 20.4409C26.9834 20.2117 26.9146 19.9518 26.9157 19.6875V19.3125C26.9146 19.0482 26.9834 18.7883 27.1152 18.5591C27.2469 18.33 27.4368 18.1397 27.6657 18.0075L27.7782 17.94C28.122 17.7408 28.3728 17.4134 28.4755 17.0295C28.5781 16.6456 28.5242 16.2367 28.3257 15.8925L28.1607 15.6075C27.9615 15.2637 27.6341 15.0129 27.2502 14.9102C26.8663 14.8076 26.4574 14.8614 26.1132 15.06L26.0007 15.12C25.7727 15.2517 25.514 15.321 25.2507 15.321C24.9874 15.321 24.7287 15.2517 24.5007 15.12L24.1782 14.9325C23.9504 14.801 23.7612 14.6119 23.6295 14.3841C23.4979 14.1564 23.4285 13.898 23.4282 13.635V13.5C23.4282 13.1022 23.2701 12.7206 22.9888 12.4393C22.7075 12.158 22.326 12 21.9282 12Z" stroke="#2B2E48" stroke-width="1.5" stroke-linecap="round" stroke-linejoin="round"/>
<path d="M21.7632 21.75C23.0058 21.75 24.0132 20.7426 24.0132 19.5C24.0132 18.2574 23.0058 17.25 21.7632 17.25C20.5205 17.25 19.5132 18.2574 19.5132 19.5C19.5132 20.7426 20.5205 21.75 21.7632 21.75Z" stroke="#2B2E48" stroke-width="1.5" stroke-linecap="round" stroke-linejoin="round"/>
</svg>
