<svg width="20" height="20" viewBox="0 0 20 20" fill="none" xmlns="http://www.w3.org/2000/svg">
<g clip-path="url(#clip0_440_2577)">
<path d="M17.1987 2.76855C15.6542 2.76855 14.3975 4.02519 14.3975 5.56977C14.3975 7.11435 15.6541 8.37105 17.1987 8.37105C18.7433 8.37105 20 7.11435 20 5.56977C20 4.02519 18.7433 2.76855 17.1987 2.76855ZM17.1987 7.19859C16.3006 7.19859 15.5699 6.46795 15.5699 5.56977C15.5699 4.67165 16.3006 3.94101 17.1987 3.94101C18.0969 3.94101 18.8275 4.67165 18.8275 5.56977C18.8276 6.46795 18.0969 7.19859 17.1987 7.19859Z" fill="white"/>
<path d="M0.725378 6.53789C0.839856 6.6523 0.989889 6.70954 1.13992 6.70954C1.28996 6.70954 1.43999 6.6523 1.55447 6.53789L3.0781 5.01426L4.60174 6.53789C4.71622 6.6523 4.86625 6.70954 5.01629 6.70954C5.16632 6.70954 5.31635 6.6523 5.43083 6.53789C5.65972 6.309 5.65972 5.93776 5.43083 5.7088L3.90713 4.18523L5.43077 2.6616C5.65965 2.43271 5.65965 2.06146 5.43077 1.8325C5.20181 1.60368 4.8307 1.60368 4.60167 1.8325L3.0781 3.35614L1.55447 1.8325C1.32551 1.60368 0.954401 1.60368 0.725378 1.8325C0.496489 2.06139 0.496489 2.43264 0.725378 2.6616L2.24901 4.18523L0.725378 5.7088C0.496489 5.93776 0.496489 6.30894 0.725378 6.53789Z" fill="white"/>
<path d="M13.1832 13.4614C12.9542 13.2326 12.5831 13.2326 12.3541 13.4614L10.8305 14.985L9.30691 13.4614C9.07795 13.2326 8.70684 13.2326 8.47782 13.4614C8.24893 13.6904 8.24893 14.0615 8.47782 14.2905L10.0015 15.8141L8.47782 17.3377C8.24893 17.5666 8.24893 17.9378 8.47782 18.1668C8.5923 18.2812 8.74233 18.3384 8.89236 18.3384C9.0424 18.3384 9.19243 18.2812 9.30691 18.1668L10.8305 16.6432L12.3541 18.1667C12.4686 18.2811 12.6186 18.3384 12.7687 18.3384C12.9187 18.3384 13.0687 18.2811 13.1832 18.1667C13.4121 17.9378 13.4121 17.5666 13.1832 17.3376L11.6596 15.8141L13.1832 14.2905C13.4122 14.0615 13.4122 13.6903 13.1832 13.4614Z" fill="white"/>
<path d="M13.229 5.2411L10.8648 3.18602C10.6205 2.97356 10.2502 2.99962 10.0378 3.24386C9.82545 3.48817 9.85138 3.85841 10.0957 4.07087L11.3494 5.16077C7.64896 5.64474 5.45791 7.57855 4.23987 9.21302C3.173 10.6447 2.67421 12.0548 2.47394 12.7556C1.0831 12.9183 0 14.1033 0 15.5371C0 17.0817 1.25663 18.3384 2.80121 18.3384C4.34579 18.3384 5.60249 17.0818 5.60249 15.5371C5.60249 14.2938 4.78795 13.2376 3.66465 12.8727C3.87562 12.2062 4.33259 11.0391 5.20835 9.87585C6.73293 7.85087 8.85084 6.65834 11.5152 6.31922L10.3469 7.66312C10.1345 7.90743 10.1605 8.27767 10.4048 8.49013C10.5158 8.58663 10.6527 8.6339 10.7891 8.6339C10.9529 8.6339 11.1159 8.56562 11.2318 8.43228L13.2869 6.06811C13.4993 5.82373 13.4733 5.45356 13.229 5.2411ZM4.43003 15.5371C4.43003 16.4353 3.69939 17.166 2.80121 17.166C1.9031 17.166 1.17246 16.4353 1.17246 15.5371C1.17246 14.639 1.9031 13.9084 2.80121 13.9084C3.69933 13.9084 4.43003 14.639 4.43003 15.5371Z" fill="white"/>
</g>
<defs>
<clipPath id="clip0_440_2577">
<rect width="20" height="20" fill="white"/>
</clipPath>
</defs>
</svg>
