<svg width="44" height="44" viewBox="0 0 44 44" fill="none" xmlns="http://www.w3.org/2000/svg">
<g opacity="0.4" filter="url(#filter0_f_2044_10324)">
<circle cx="22" cy="22" r="14" fill="#7B57E0"/>
</g>
<g clip-path="url(#clip0_2044_10324)">
<path fill-rule="evenodd" clip-rule="evenodd" d="M22.5114 16.7323C21.2677 16.7323 20.2594 17.7406 20.2594 18.9844C20.2594 20.2282 21.2677 21.2364 22.5114 21.2364C23.7552 21.2364 24.7635 20.2282 24.7635 18.9844C24.7635 17.7406 23.7552 16.7323 22.5114 16.7323ZM24.1676 21.5423C25.0046 20.9992 25.5583 20.0565 25.5583 18.9844C25.5583 17.3016 24.1942 15.9375 22.5114 15.9375C20.8287 15.9375 19.4645 17.3016 19.4645 18.9844C19.4645 20.0565 20.0182 20.9992 20.8553 21.5423C20.2523 21.7729 19.6982 22.1291 19.2329 22.5945C18.4965 23.3309 18.0333 24.2895 17.9088 25.3128H18.7108C18.8304 24.5011 19.2078 23.7436 19.7949 23.1565C20.5154 22.436 21.4925 22.0313 22.5114 22.0313C23.5154 22.0313 24.4788 22.4242 25.1961 23.125C25.3269 22.8903 25.4962 22.68 25.6954 22.5026C25.2503 22.082 24.7303 21.7575 24.1676 21.5423Z" fill="white"/>
<path d="M27.6017 27.5625C27.5384 27.5625 27.4963 27.5414 27.4541 27.4993L26.1885 26.2337C26.1252 26.1704 26.1042 26.0861 26.1463 26.0017C26.1674 25.9173 26.2518 25.8751 26.3362 25.8751H26.9689C27.1377 25.8751 27.3064 25.8119 27.4119 25.6853C27.5384 25.5798 27.6017 25.4111 27.6017 25.2424C27.6017 25.0736 27.5384 24.9049 27.4119 24.7994C27.3064 24.6729 27.1377 24.6096 26.9689 24.6096H26.3362C26.2096 24.6096 26.1252 24.5252 26.1252 24.3987C26.1252 24.2721 26.2096 24.1877 26.3362 24.1877H28.6563C28.7829 24.1877 28.8673 24.2721 28.8673 24.3987C28.8673 24.5252 28.7829 24.6096 28.6563 24.6096H27.8126C27.9392 24.7994 28.0236 25.0103 28.0236 25.2424C28.0236 25.5166 27.9181 25.7908 27.7072 25.9806C27.5173 26.1915 27.2431 26.297 26.9689 26.297H26.8424L27.7494 27.204C27.8337 27.2883 27.8337 27.4149 27.7494 27.4993C27.7072 27.5414 27.665 27.5625 27.6017 27.5625Z" fill="white"/>
<path d="M28.6565 25.4531H26.3363C26.2097 25.4531 26.1254 25.3687 26.1254 25.2422C26.1254 25.1156 26.2097 25.0312 26.3363 25.0312H28.6565C28.783 25.0312 28.8674 25.1156 28.8674 25.2422C28.8674 25.3687 28.783 25.4531 28.6565 25.4531Z" fill="white"/>
</g>
<path d="M24.2234 26.3889C22.8727 26.8183 21.4168 26.7806 20.0902 26.2818C18.7635 25.783 17.6434 24.8522 16.9102 23.6392C16.1769 22.4263 15.8733 21.0019 16.0483 19.5954C16.2232 18.1889 16.8664 16.8822 17.8744 15.8858C18.8823 14.8894 20.1964 14.2613 21.6048 14.1027C23.0132 13.944 24.434 14.264 25.6384 15.0112C26.8428 15.7584 27.7606 16.8892 28.244 18.2215C28.7275 19.5538 28.7484 21.0101 28.3034 22.3557" stroke="white" stroke-width="0.937441" stroke-miterlimit="10"/>
<path d="M27.6116 29.0625C29.4829 29.0625 30.9998 27.5455 30.9998 25.6742C30.9998 23.8029 29.4829 22.2859 27.6116 22.2859C25.7403 22.2859 24.2233 23.8029 24.2233 25.6742C24.2233 27.5455 25.7403 29.0625 27.6116 29.0625Z" stroke="white" stroke-width="0.937441" stroke-miterlimit="10"/>
<defs>
<filter id="filter0_f_2044_10324" x="0" y="0" width="44" height="44" filterUnits="userSpaceOnUse" color-interpolation-filters="sRGB">
<feFlood flood-opacity="0" result="BackgroundImageFix"/>
<feBlend mode="normal" in="SourceGraphic" in2="BackgroundImageFix" result="shape"/>
<feGaussianBlur stdDeviation="4" result="effect1_foregroundBlur_2044_10324"/>
</filter>
<clipPath id="clip0_2044_10324">
<rect width="14.9991" height="14.9991" fill="white" transform="translate(16 15.9377)"/>
</clipPath>
</defs>
</svg>
