<svg width="44" height="44" viewBox="0 0 44 44" fill="none" xmlns="http://www.w3.org/2000/svg">
<g opacity="0.4" filter="url(#filter0_f_2044_10386)">
<circle cx="22" cy="22" r="14" fill="#7B57E0"/>
</g>
<path d="M27.1673 17.0011C27.1357 17.0012 27.1048 16.9924 27.0781 16.9756C27.0514 16.9589 27.03 16.9348 27.0163 16.9064C27.0027 16.8779 26.9974 16.8462 27.0012 16.8149C27.0049 16.7835 27.0174 16.7539 27.0372 16.7294L28.6878 15.0288C28.7002 15.0145 28.7171 15.0048 28.7357 15.0014C28.7543 14.998 28.7735 15.0009 28.7902 15.0099C28.8068 15.0188 28.82 15.0331 28.8274 15.0505C28.8349 15.0678 28.8362 15.0872 28.8312 15.1055L28.5111 16.1092C28.5017 16.1344 28.4985 16.1616 28.5019 16.1884C28.5052 16.2151 28.515 16.2407 28.5305 16.2628C28.5459 16.2849 28.5664 16.303 28.5903 16.3154C28.6143 16.3279 28.6409 16.3343 28.6678 16.3342H29.8349C29.8665 16.3341 29.8974 16.343 29.9241 16.3598C29.9508 16.3765 29.9722 16.4005 29.9859 16.429C29.9995 16.4575 30.0047 16.4892 30.001 16.5205C29.9973 16.5519 29.9848 16.5815 29.9649 16.606L28.3144 18.3066C28.302 18.3209 28.2851 18.3306 28.2665 18.334C28.2479 18.3374 28.2287 18.3344 28.212 18.3255C28.1954 18.3166 28.1822 18.3023 28.1748 18.2849C28.1673 18.2675 28.166 18.2481 28.171 18.2299L28.4911 17.2262C28.5005 17.201 28.5037 17.1738 28.5003 17.147C28.497 17.1203 28.4872 17.0947 28.4717 17.0726C28.4563 17.0505 28.4358 17.0324 28.4119 17.02C28.3879 17.0075 28.3613 17.0011 28.3344 17.0011H27.1673Z" stroke="white" stroke-width="0.2" stroke-linecap="round" stroke-linejoin="round"/>
<path d="M27.1025 26.2535L24.3891 22.5623M22.3539 19.794L19.6404 16.1028M27.1574 20.5272L29.8709 24.2184L23.6396 28.8134C22.2893 29.6958 20.6523 30.0274 19.0651 29.7402C17.4778 29.4529 16.0609 28.5686 15.1055 27.269C14.1501 25.9693 13.7288 24.3531 13.9282 22.7524C14.1276 21.1517 14.9325 19.6883 16.1775 18.6627L22.4088 14.0677L25.1223 17.7588L19.2293 22.0696C18.9266 22.3609 18.74 22.7522 18.7042 23.1707C18.6684 23.5892 18.7858 24.0065 19.0346 24.345C19.2834 24.6835 19.6467 24.92 20.0569 25.0107C20.467 25.1014 20.8962 25.04 21.2645 24.838L27.1574 20.5272Z" stroke="white" stroke-width="0.9" stroke-linecap="round" stroke-linejoin="round"/>
<defs>
<filter id="filter0_f_2044_10386" x="0" y="0" width="44" height="44" filterUnits="userSpaceOnUse" color-interpolation-filters="sRGB">
<feFlood flood-opacity="0" result="BackgroundImageFix"/>
<feBlend mode="normal" in="SourceGraphic" in2="BackgroundImageFix" result="shape"/>
<feGaussianBlur stdDeviation="4" result="effect1_foregroundBlur_2044_10386"/>
</filter>
</defs>
</svg>
