<svg width="44" height="44" viewBox="0 0 44 44" fill="none" xmlns="http://www.w3.org/2000/svg">
<g opacity="0.4" filter="url(#filter0_f_2044_10312)">
<circle cx="22" cy="22" r="14" fill="#7B57E0"/>
</g>
<path d="M26.321 18.4038L25.9258 19.7163H16.5444L16.9322 18.4038H26.321ZM22.5252 30L16.6637 23.1168L16.6488 22.1548H19.2141C19.9897 22.1548 20.6509 22.043 21.1978 21.8192C21.7447 21.5906 22.1623 21.2525 22.4506 20.805C22.744 20.3576 22.8906 19.8033 22.8906 19.142C22.8906 18.1676 22.5849 17.402 21.9734 16.8452C21.3668 16.2834 20.4968 16.0025 19.3633 16.0025H16.5444L16.9322 14.7273H19.3633C20.457 14.7273 21.3718 14.9162 22.1076 15.294C22.8484 15.6719 23.4052 16.1939 23.7781 16.8601C24.1559 17.5213 24.3448 18.282 24.3448 19.142C24.3448 19.9474 24.1634 20.6733 23.8004 21.3196C23.4425 21.9609 22.8881 22.4705 22.1374 22.8484C21.3917 23.2212 20.4396 23.4077 19.2812 23.4077H18.7443L24.2628 29.8881V30H22.5252ZM26.3732 14.7273L25.9854 16.0398L18.0806 16.0025L18.4386 14.7273H26.3732Z" fill="white"/>
<defs>
<filter id="filter0_f_2044_10312" x="0" y="0" width="44" height="44" filterUnits="userSpaceOnUse" color-interpolation-filters="sRGB">
<feFlood flood-opacity="0" result="BackgroundImageFix"/>
<feBlend mode="normal" in="SourceGraphic" in2="BackgroundImageFix" result="shape"/>
<feGaussianBlur stdDeviation="4" result="effect1_foregroundBlur_2044_10312"/>
</filter>
</defs>
</svg>
